<?xml version="1.0" encoding="UTF-8" standalone="no"?>
<svg xmlns:rdf="http://www.w3.org/1999/02/22-rdf-syntax-ns#" xmlns="http://www.w3.org/2000/svg" height="104.771" width="518.269" version="1.1" xmlns:cc="http://creativecommons.org/ns#" xmlns:dc="http://purl.org/dc/elements/1.1/">
 <path d="m409.272 58.7226h-39.7907l6.59312-24.606h-16.0895l-7.3092 27.2784c-0.31318 1.1688-0.45501 2.29896-0.47207 3.38405-0.008 0.47653 0.0104 0.94663 0.0594 1.40062 0.42832 4.19351 3.0904 7.40464 7.15108 8.47233 0.9471 0.25064 1.96737 0.39638 3.05246 0.39638h45.0679c1.09152 0 2.18346-0.1458 3.26833-0.39733 6.28349-1.44797 12.1212-6.83217 13.8425-13.256l7.3092-27.2784h-16.0895l-6.59312 24.606m94.623-7.98518 4.37499-16.3278h-55.9542l2.6193-9.77541h-16.0895l-9.84995 36.7607c-0.41153 1.53586-0.54178 3.00733-0.4506 4.38542 0.0416 0.6021 0.13006 1.18489 0.25685 1.74514 1.02468 4.45527 4.74271 7.52282 9.98781 7.52282h58.5912l4.37448-16.3258h-55.9542l2.13961-7.98518h55.9542m-152.086-7.7534c-0.42866-4.19223-3.091-7.4024-7.15134-8.47138-0.94785-0.2478-1.96745-0.39604-3.05576-0.39604h-45.0658c-1.09055 0-2.18441 0.14811-3.26573 0.39604-4.12659 0.95307-8.0499 3.59655-10.7525 7.12549-0.43056 0.56025-0.82949 1.14304-1.19465 1.74514-0.66858 1.11085-1.21626 2.28609-1.61643 3.50318-0.0991 0.29301-0.20102 0.58601-0.28039 0.88224l-3.65115 13.6263c-0.0802 0.29945-0.13469 0.58923-0.1924 0.88224-0.25191 1.21709-0.33419 2.39233-0.26091 3.50318 0.0424 0.6021 0.12911 1.18489 0.25943 1.74514 0.81168 3.5283 3.31731 6.17564 6.93377 7.12645 0.94773 0.25063 1.96285 0.39637 3.0534 0.39637h45.0658c1.08831 0 2.1867-0.14579 3.26834-0.39733 4.63261-1.06674 9.01552-4.27787 11.6911-8.47138 0.29217-0.45399 0.56315-0.92409 0.80997-1.40062 0.56443-1.08509 1.03147-2.21525 1.34465-3.38405l3.65115-13.6263c0.31317-1.1688 0.45166-2.29896 0.46798-3.38083 0.01-0.47975-0.0104-0.94663-0.0585-1.40384zm-19.434 15.7385h-39.7958l2.21812-8.27818h39.7958l-2.21812 8.27818m-104.553-41.8063l-0.54689 0.6987c-1.38021 1.82243-2.44215 3.87024-3.02278 6.03719l-2.80393 10.4644h-1.23126c-7.41816 0-15.095 6.12412-17.1121 13.6521l-3.65115 13.6263c-2.01745 7.52926 2.3775 13.6534 9.79566 13.6534h58.2702l4.37448-16.3258h-55.6338l2.21812-8.27818h55.6338l4.375-16.3278h-40.9498l2.08698-7.78877h40.9498l4.375-16.3278h-43.586c-5.00457 0-10.1183 2.79159-13.5415 6.9162m-154.937 41.8063h-14.7497l4.51044-16.8333h-16.0892l-4.51044 16.8333h-14.7494l8.95615-33.4249h-16.0904l-9.6723 36.0977c-2.01745 7.52926 2.37745 13.6534 9.79434 13.6534h50.862c7.41818 0 15.095-6.12412 17.1125-13.6534l7.10297-26.5087h-16.0901l-6.38692 23.8364m26.5327-22.7449h16.0891l2.97109-11.0883h-16.0891l-2.97109 11.0883zm14.6113 5.51557h-16.0892l-5.33264 19.9018c-2.01745 7.52926 2.37621 13.6534 9.79437 13.6534h13.5108l4.37448-16.3258h-10.8744l4.61656-17.2293m74.9333-7.37663h-58.3068l-4.37499 16.3278h55.6701l-2.21813 8.27819h-41.4792c-7.41816 0-15.0941 6.1209-17.1113 13.6492l-6.00188 22.3994h16.0904l5.28467-19.7228h41.4792c7.41819 0 15.095-6.12412 17.1125-13.6534l3.65115-13.6263c2.01711-7.52796-2.37785-13.6521-9.79603-13.6521" fill="#00aeff"/>
</svg>
